<svg fill="none" height="24" viewBox="0 0 24 24" width="24" xmlns="http://www.w3.org/2000/svg"><path d="m16.6308 13.131c-.0565.058-.2699.306-.4686.51-1.1651 1.283-4.2046 3.383-5.7954 4.024-.2416.103-.85243.321-1.17878.335-.31272 0-.61082-.072-.89528-.218-.3546-.204-.63906-.525-.79493-.904-.10034-.263-.25621-1.05-.25621-1.064-.15587-.861-.2416-2.26-.2416-3.806 0-1.473.08573-2.815.21335-3.689.01461-.014.17048-.992.34096-1.327.31271-.612.92353-.992 1.5772-.992h.05651c.42572.015 1.32098.395 1.32098.409 1.5051.642 4.4744 2.639 5.6678 3.966 0 0 .3361.341.4822.554.228.306.341.685.341 1.064 0 .423-.1276.817-.3692 1.138z" fill="#200e32"/></svg>