<svg fill="none" height="24" viewBox="0 0 24 24" width="24" xmlns="http://www.w3.org/2000/svg"><path d="m7.36922 10.869c.0565-.058.26984-.306.46858-.51 1.16512-1.283 4.2046-3.383 5.7954-4.024.2416-.103.8524-.321 1.1788-.335.3127 0 .6108.072.8953.218.3546.204.639.525.7949.904.1003.263.2562 1.05.2562 1.064.1559.861.2416 2.26.2416 3.806 0 1.473-.0857 2.815-.2133 3.689-.0147.014-.1705.992-.341 1.327-.3127.612-.9235.992-1.5772.992h-.0565c-.4257-.015-1.321-.395-1.321-.409-1.5051-.642-4.47444-2.639-5.66781-3.966 0 0-.3361-.341-.48223-.554-.22795-.306-.34096-.685-.34096-1.064 0-.423.12762-.817.36922-1.138z" fill="#200e32"/></svg>