<svg fill="none" height="24" viewBox="0 0 24 24" width="24" xmlns="http://www.w3.org/2000/svg"><path clip-rule="evenodd" d="m14.1213 11.2331h2.7678c.4197 0 .7495-.347.7495-.7654 0-.4286-.3298-.76534-.7495-.76534h-2.7678c-.4197 0-.7494.33674-.7494.76534 0 .4184.3297.7654.7494.7654zm6.0553-5.30561c.6095 0 1.0092.21431 1.4089.68374.3997.46944.4696 1.14297.3797 1.75426l-.9493 6.69451c-.1798 1.2869-1.259 2.2349-2.528 2.2349h-10.90151c-1.32897 0-2.42811-1.0399-2.53802-2.3869l-.91929-11.1246-1.50882-.26533c-.39969-.07143-.67947-.46943-.60953-.87764.06995-.41738.45965-.69394.86933-.63169l2.38314.36636c.33973.06225.58954.34697.61952.69395l.18985 2.28594c.02997.32758.28977.5725.60952.5725zm-12.75029 12.98041c-.83934 0-1.51881.6939-1.51881 1.5511 0 .8471.67947 1.541 1.51881 1.541.82936 0 1.50883-.6939 1.50883-1.541 0-.8572-.67947-1.5511-1.50883-1.5511zm11.24129 0c-.8394 0-1.5189.6939-1.5189 1.5511 0 .8471.6795 1.541 1.5189 1.541.8293 0 1.5088-.6939 1.5088-1.541 0-.8572-.6795-1.5511-1.5088-1.5511z" fill="#200e32" fill-rule="evenodd"/></svg>