<svg fill="none" height="24" viewBox="0 0 24 24" width="24" xmlns="http://www.w3.org/2000/svg"><path d="m18.1666 14.3797c-.6717-.1445-1.2031.1674-1.6736.4398-.4819.2806-1.3981 1.0239-1.9233.8337-2.6889-1.1071-5.21781-3.4606-6.31256-6.16029-.19294-.5364.54686-1.45846.82545-1.946.27033-.47195.57574-1.00835.43645-1.68508-.12588-.60813-1.75407-2.67991-2.32981-3.24645-.37971-.37423-.7687-.58006-1.168-.61333-1.50128-.06445-3.17796 1.93873-3.47202 2.41795-.73671 1.02186-.73258 2.38157.01238 4.03026 1.79534 4.42844 8.58561 11.11154 13.03061 12.97434.8203.3836 1.5704.5759 2.2442.5759.6593 0 1.2464-.184 1.751-.5488.3807-.2194 2.466-1.9793 2.4113-3.5209-.033-.393-.2383-.7859-.6077-1.1664-.5624-.5811-2.6208-2.2578-3.2244-2.3847z" fill="#200e32"/></svg>