<svg fill="none" height="24" viewBox="0 0 24 24" width="24" xmlns="http://www.w3.org/2000/svg"><path clip-rule="evenodd" d="m17.44 6.2364c.04.06993.11.11987.2.11987 2.4 0 4.36 1.95783 4.36 4.35513v5.9334c0 2.3974-1.96 4.3552-4.36 4.3552h-11.28c-2.41 0-4.36-1.9578-4.36-4.3552v-5.9334c0-2.3973 1.95-4.35513 4.36-4.35513.08 0 .16-.03995.19-.11987l.06-.11986c.03448-.07257.06987-.14711.10579-.22278.25582-.53884.53884-1.13497.71421-1.48532.46-.89901 1.24-1.39845 2.21-1.40844h4.71c.97.00999 1.76.50943 2.22 1.40844.1575.31464.3974.82146.6287 1.30995.0477.10082.0951.20085.1413.29826zm-.73 3.8357c0 .4995.4.899.9.899s.91-.3995.91-.899c0-.4994-.41-.90895-.91-.90895s-.9.40955-.9.90895zm-6.44 1.5483c.47-.4695 1.08-.7192 1.73-.7192s1.26.2497 1.72.7092.71 1.0688.71 1.7181c-.01 1.3385-1.09 2.4273-2.43 2.4273-.65 0-1.26-.2497-1.72-.7092s-.71-1.0688-.71-1.7181v-.01c-.01-.6293.24-1.2386.7-1.6981zm4.5 4.485c-.71.7093-1.69 1.1488-2.77 1.1488-1.05 0-2.03-.4096-2.78-1.1488-.74-.7491-1.15-1.728-1.15-2.7769-.01-1.0388.4-2.0177 1.14-2.7669.75-.74917 1.74-1.15871 2.79-1.15871s2.04.40954 2.78 1.14871c.74.7492 1.15 1.7381 1.15 2.7769-.01 1.0888-.45 2.0677-1.16 2.7769z" fill="#200e32" fill-rule="evenodd"/></svg>