<svg fill="none" height="24" viewBox="0 0 24 24" width="24" xmlns="http://www.w3.org/2000/svg"><g fill="#200e32"><path d="m12.02 2c-5.81 0-10.02 4.74-10.02 10 0 1.68.49 3.41 1.35 4.99.16.26.18.59.07.9l-.67 2.24c-.15.54.31.94.82.78l2.02-.6c.55-.18.98.05 1.491.36 1.46.86 3.279 1.3 4.919 1.3 4.96 0 10-3.83 10-10 0-5.32-4.3-9.97-9.98-9.97z" opacity=".4"/><path clip-rule="evenodd" d="m11.9805 13.2901c-.71-.01-1.28-.58-1.28-1.29 0-.7.58-1.28 1.28-1.27.71 0 1.28.57 1.28 1.28 0 .7-.57 1.28-1.28 1.28zm-4.61041 0c-.7 0-1.28-.58-1.28-1.28 0-.71.57-1.28 1.28-1.28s1.28.57 1.28 1.28c0 .7-.57 1.27-1.28 1.28zm7.94021-1.28c0 .7.57 1.28 1.28 1.28s1.28-.58 1.28-1.28c0-.71-.57-1.28-1.28-1.28s-1.28.57-1.28 1.28z" fill-rule="evenodd"/></g></svg>