<svg fill="none" height="24" viewBox="0 0 24 24" width="24" xmlns="http://www.w3.org/2000/svg"><path clip-rule="evenodd" d="m20.2871 5.24297c.389 0 .7129.32299.7129.73399v.38c0 .40099-.3239.73399-.7129.73399h-16.57325c-.38999 0-.71385-.333-.71385-.73399v-.38c0-.411.32386-.73399.71385-.73399h2.91572c.59228 0 1.10773-.421 1.24097-1.01499l.15269-.682c.23731-.92899 1.01827-1.54598 1.91204-1.54598h4.12943c.8841 0 1.6738.61699 1.9023 1.49699l.1634.72999c.1323.59499.6477 1.01599 1.241 1.01599zm-1.4813 13.89103c.3044-2.8369.8374-9.57688.8374-9.64487.0194-.206-.0477-.401-.1809-.558-.143-.147-.3239-.234-.5232-.234h-13.87058c-.20034 0-.39096.087-.52323.234-.13421.157-.20035.352-.19062.558.00179.01249.02091.2499.05288.64677.14203 1.7633.53762 6.6743.79324 8.9981.18089 1.712 1.30419 2.788 2.93127 2.827 1.25557.029 2.54904.039 3.87174.039 1.2458 0 2.5111-.01 3.8056-.039 1.6835-.029 2.8058-1.086 2.9964-2.827z" fill="#200e32" fill-rule="evenodd"/></svg>