<svg fill="none" height="24" viewBox="0 0 24 24" width="24" xmlns="http://www.w3.org/2000/svg"><path clip-rule="evenodd" d="m8.87774 6.37856c0 1.86667-1.53888 3.37965-3.43887 3.37965-1.89888 0-3.43887-1.51298-3.43887-3.37965 0-1.86558 1.53999-3.37856 3.43887-3.37856 1.89999 0 3.43887 1.51298 3.43887 3.37856zm11.61556-1.48023c.8311 0 1.5067.6637 1.5067 1.48023 0 .81762-.6756 1.48133-1.5067 1.48133h-6.5755c-.8322 0-1.5077-.66371-1.5077-1.48133 0-.81653.6755-1.48023 1.5077-1.48023zm-16.98553 11.05967h6.57553c.8322 0 1.5078.6637 1.5078 1.4813 0 .8165-.6756 1.4813-1.5078 1.4813h-6.57553c-.83222 0-1.50777-.6648-1.50777-1.4813 0-.8176.67555-1.4813 1.50777-1.4813zm15.05333 4.8198c1.9 0 3.4389-1.513 3.4389-3.3786 0-1.8667-1.5389-3.3796-3.4389-3.3796-1.8988 0-3.4388 1.5129-3.4388 3.3796 0 1.8656 1.54 3.3786 3.4388 3.3786z" fill="#200e32" fill-rule="evenodd"/></svg>