<svg fill="none" height="24" viewBox="0 0 24 24" width="24" xmlns="http://www.w3.org/2000/svg"><path clip-rule="evenodd" d="m7.66618 22h8.66662c3.3903 0 5.6672-2.3781 5.6672-5.9167v-8.16658c0-3.53861-2.2769-5.91672-5.6662-5.91672h-8.66762c-3.38928 0-5.66618 2.37811-5.66618 5.91672v8.16658c0 3.5386 2.2769 5.9167 5.66618 5.9167zm.83268-11c-1.37865 0-2.49886-1.12173-2.49886-2.5s1.12021-2.5 2.49886-2.5c1.37764 0 2.49884 1.12173 2.49884 2.5s-1.1212 2.5-2.49884 2.5zm11.32194 3.934c.3349.8586.1609 1.8906-.1971 2.7409-.4243 1.0114-1.2368 1.7771-2.2605 2.1115-.4545.1486-.9312.2136-1.4068.2136h-8.42776c-.83865 0-1.58076-.2012-2.18914-.5759-.38111-.2352-.44848-.7781-.16592-1.13.47262-.5882.93921-1.1785 1.40982-1.774.89698-1.1393 1.50133-1.4695 2.17305-1.1795.27251.1197.54603.2992.82759.4891.75016.5098 1.79296 1.2105 3.16656.45.94-.5265 1.4852-1.4296 1.96-2.216l.0079-.0131c.0337-.0552.067-.1104.1002-.1654.1596-.264.317-.5245.4951-.7645.2233-.3003 1.0508-1.2394 2.1228-.5706.6828.421 1.257.9907 1.8714 1.6006.2343.2332.4012.4984.5128.7833z" fill="#200e32" fill-rule="evenodd"/></svg>