<svg viewBox="0 0 24 24" xmlns="http://www.w3.org/2000/svg"><path d="m0 0h24v24h-24z" fill="none"/><g fill="#030835" transform="translate(-161.70469 -172.41294)"><path d="m176.04627 175.92244h-4.66177a7.66591 7.66591 0 0 0 -7.65744 7.65793v4.42937a1.97461 1.97461 0 0 0 -.02237.222v2.66955a2.00215 2.00215 0 1 0 4.0043 0v-2.66955a2.0011 2.0011 0 0 0 -1.98417-2.00033v-2.651a5.66649 5.66649 0 0 1 5.65968-5.66016h4.66177a5.66668 5.66668 0 0 1 5.66065 5.66016v2.64959l-.00438-.00042a2.00215 2.00215 0 0 0 -2.00216 2.00215v2.66955a2.00216 2.00216 0 1 0 4.00431 0v-7.3209a7.66675 7.66675 0 0 0 -7.65842-7.65794z"/><path d="m175.30752 182.66489h-3.35366a.74916.74916 0 0 1 0-1.49832h3.35366a.74916.74916 0 0 1 0 1.49832z"/></g></svg>