<svg fill="none" height="24" viewBox="0 0 24 24" width="24" xmlns="http://www.w3.org/2000/svg"><path clip-rule="evenodd" d="m6.48311 2.81529c-3.67159 1.18209-5.30925 5.1904-4.07829 9.01421.62465 1.8006 1.64052 3.419 2.97522 4.7467 1.83097 1.7783 3.8425 3.3432 6.00486 4.6729l.2455.147c.2352.1408.5294.1383.7622-.0064l.2292-.1424c2.1594-1.3279 4.1709-2.8928 5.9956-4.6649 1.341-1.3339 2.3569-2.9523 2.9763-4.7372 1.2354-3.83719-.409-7.8474-4.0817-9.02985l-.2657-.07912c-1.6839-.46314-3.4733-.23493-4.9818.61912l-.2681.15894-.2634-.15806c-1.5911-.90279-3.4926-1.1062-5.24989-.54094zm4.89149 2.03898.1968.14111c.2593.18573.6092.18204.8646-.00913 1.33-.99568 3.0513-1.28543 4.6281-.77956 2.8456.91615 4.1406 4.07427 3.1423 7.17531-.5414 1.5597-1.4377 2.9876-2.6148 4.1585l-.528.5016c-1.4226 1.3221-2.961 2.5189-4.5945 3.5735l-.4678.2942.1427.09c-2.0635-1.269-3.99025-2.7679-5.73818-4.4655-1.17077-1.1647-2.06705-2.5926-2.61375-4.1679-.99399-3.08839.29539-6.24428 3.13946-7.15994 1.50178-.48307 3.13907-.24357 4.44307.64781zm4.4957 1.62947c-.3848-.12281-.7964.0893-.9193.47375s.0894.79567.4742.91848c.7562.24138 1.2954.92206 1.3629 1.72499.0339.40214.3876.70074.7901.66694s.7014-.3872.6675-.78937c-.1169-1.38994-1.054-2.57302-2.3754-2.99479z" fill="#200e32" fill-rule="evenodd"/></svg>