<svg fill="none" height="24" viewBox="0 0 24 24" width="24" xmlns="http://www.w3.org/2000/svg"><path clip-rule="evenodd" d="m9.80327 15.2526c.62443.4233 1.38553.6793 2.19543.6793 2.1466 0 3.8932-1.7623 3.8932-3.9282 0-.8171-.2537-1.5851-.6733-2.21515l-1.0635 1.07315c.1756.3347.2732.7285.2732 1.142 0 1.3488-1.0929 2.4514-2.4296 2.4514-.4098 0-.8001-.0984-1.1319-.2756zm8.62553-8.70308c1.4148 1.29955 2.615 3.05197 3.5127 5.15878.078.1871.078.4037 0 .5809-2.0881 4.9029-5.8057 7.8367-9.9428 7.8367h-.0098c-1.8831 0-3.68827-.6203-5.27872-1.7524l-1.89293 1.9099c-.14636.1477-.33175.2166-.51714.2166s-.38054-.0689-.51714-.2166c-.24394-.2461-.28297-.6399-.08782-.9254l.02927-.0394 14.43118-14.56089c.0195-.01969.039-.03938.0488-.05907v-.00001c.0195-.01969.039-.03938.0488-.05906l.9172-.92544c.2927-.28551.7513-.28551 1.0342 0 .2928.28551.2928.75807 0 1.04358zm-10.33044 5.45798c0 .256.02928.512.06831.7483l-3.61024 3.6426c-.97573-1.142-1.82463-2.5203-2.49789-4.1054-.07805-.1772-.07805-.3938 0-.5808 2.08808-4.90287 5.80565-7.82686 9.93306-7.82686h.0097c1.3953 0 2.7516.33473 4.0005.96481l-3.2589 3.28826c-.2342-.03938-.4879-.06891-.7416-.06891-2.15636 0-3.90294 1.76227-3.90294 3.938z" fill="#200e32" fill-rule="evenodd"/></svg>