<svg fill="none" height="24" viewBox="0 0 24 24" width="24" xmlns="http://www.w3.org/2000/svg"><path d="m9.13478 20.7733v-3.0577c0-.7805.63739-1.4133 1.42362-1.4133h2.8742c.3776 0 .7397.1489 1.0067.414.267.265.417.6245.417.9993v3.0577c-.0024.3245.1258.6366.3561.8669s.5437.3598.8705.3598h1.9609c.9158.0023 1.795-.3572 2.4434-.9992s1.0128-1.5138 1.0128-2.423v-8.71094c0-.7344-.3279-1.43102-.8954-1.90219l-6.6706-5.2888c-1.1603-.92731-2.8229-.89737-3.94861.07111l-6.51838 5.21769c-.59427.45728-.94946 1.15597-.96701 1.90219v8.70204c0 1.895 1.54738 3.4311 3.45617 3.4311h1.91612c.67894 0 1.23071-.5438 1.23563-1.2178z" fill="#200e32"/></svg>