<svg viewBox="0 0 24 24" xmlns="http://www.w3.org/2000/svg"><path d="m0 0h24v24h-24z" fill="none"/><g fill="#030835" transform="translate(-161.12057 -181.08022)"><path d="m175.8458 184.80905a1.49374 1.49374 0 0 1 -1.49 1.49h-2.48a1.485 1.485 0 1 1 0-2.97h2.48a1.49168 1.49168 0 0 1 1.49 1.48z"/><path d="m176.84054 184.90143a2.49688 2.49688 0 0 1 -2.48 2.4h-2.48a2.49012 2.49012 0 0 1 -2.48-2.4 4.98092 4.98092 0 0 0 -4.28 4.93v8a5.00181 5.00181 0 0 0 5 5h6a5.00181 5.00181 0 0 0 5-5v-8a4.98965 4.98965 0 0 0 -4.28-4.93zm-1.342 13.42957h-4.77a.75.75 0 0 1 0-1.5h4.77a.75.75 0 0 1 0 1.5zm1.62-3.52h-8a.75.75 0 1 1 0-1.5h8a.75.75 0 0 1 0 1.5z"/></g></svg>