<svg enable-background="new 0 0 24 24" viewBox="0 0 24 24" xmlns="http://www.w3.org/2000/svg"><path d="m15.245 17.831h-6.49v-11.663h6.49z" fill="#ff5f00"/><path d="m9.167 12c0-2.366 1.108-4.473 2.833-5.831-1.306-1.03-2.921-1.588-4.583-1.586-4.097 0-7.417 3.321-7.417 7.417s3.32 7.417 7.416 7.417c1.663.002 3.278-.556 4.583-1.586-1.724-1.358-2.832-3.465-2.832-5.831z" fill="#eb001b"/><path d="m24 12c0 4.096-3.32 7.417-7.416 7.417-1.663.002-3.278-.556-4.584-1.586 1.725-1.358 2.833-3.465 2.833-5.831s-1.108-4.473-2.833-5.831c1.306-1.03 2.921-1.588 4.584-1.586 4.096 0 7.416 3.321 7.416 7.417z" fill="#f79e1b"/></svg>