<svg fill="none" height="24" viewBox="0 0 24 24" width="24" xmlns="http://www.w3.org/2000/svg"><path clip-rule="evenodd" d="m16.9394 3c1.341 0 2.631.53 3.58 1.481.95.949 1.481 2.229 1.481 3.569v7.9c0 2.79-2.27 5.05-5.061 5.05h-9.879c-2.791 0-5.06-2.26-5.06-5.05v-7.9c0-2.79 2.259-5.05 5.06-5.05zm1.591 6.54.08-.08c.239-.29.239-.71-.011-1-.139-.149-.33-.24-.529-.26-.21-.011-.41.06-.561.2l-4.509 3.6c-.58.481-1.411.481-2 0l-4.5-3.6c-.311-.23-.741-.2-1 .07-.27.27-.3.7-.071 1l.131.13 4.55 3.55c.56.44 1.239.68 1.95.68.709 0 1.4-.24 1.959-.68z" fill="#200e32" fill-rule="evenodd"/></svg>