<svg fill="none" height="24" viewBox="0 0 24 24" width="24" xmlns="http://www.w3.org/2000/svg"><g fill="#200e32"><path d="m18.8089 9.021c-.4515 0-1.0495-.01-1.794-.01-1.8159 0-3.309-1.503-3.309-3.336v-3.216c0-.253-.2029-.459-.4534-.459h-5.28913c-2.46733 0-4.46337 2.026-4.46337 4.509v10.775c0 2.605 2.09109 4.716 4.6703 4.716h7.8752c2.4604 0 4.4545-2.013 4.4545-4.498v-8.031c0-.254-.202-.459-.4535-.458-.4227.003-.9297.008-1.2376.008z" opacity=".4"/><path d="m16.084 2.5673c-.298-.311-.821-.097-.821.334v2.637c0 1.106.911 2.016 2.017 2.016.697.008 1.665.01 2.487.008.421-.001.635-.504.343-.808-1.055-1.097-2.944-3.063-4.026-4.187z" opacity=".4"/><path d="m12.935 12.9853 1.221-1.222c.291-.29.291-.761 0-1.052s-.762-.291-1.053 0l-1.221 1.22-1.221-1.22c-.291-.291-.76302-.291-1.05402 0s-.291.762 0 1.052l1.22202 1.222-1.22202 1.221c-.291.291-.291.762 0 1.052.146.146.336.219.52702.219.191 0 .381-.073.527-.219l1.221-1.22 1.221 1.22c.145.146.336.219.527.219.19 0 .381-.073.526-.219.291-.29.291-.761 0-1.052z"/></g></svg>