<svg viewBox="0 0 24 24" xmlns="http://www.w3.org/2000/svg"><path d="m0 0h24v24h-24z" fill="none"/><path d="m181.14127 180.17905a3.34358 3.34358 0 0 0 -4.72 0l-12.62011 12.62a4.90619 4.90619 0 0 0 -1.40991 2.99l-.27 2.87a.48986.48986 0 0 0 .54.54l2.86988-.27a4.906 4.906 0 0 0 2.99-1.41l12.62012-12.62a3.34359 3.34359 0 0 0 .00002-4.72zm-1.98023 3.04-1.74 1.73a.71009.71009 0 0 1 -.53.22.7421.7421 0 0 1 -.53-.22.7544.7544 0 0 1 0-1.06l1.74-1.73a.74955.74955 0 0 1 1.06006 1.06z" fill="#030835" transform="translate(-160.1168 -177.20269)"/></svg>