<svg fill="none" height="24" viewBox="0 0 24 24" width="24" xmlns="http://www.w3.org/2000/svg"><path clip-rule="evenodd" d="m8.4277 3c.42 0 .761.33438.761.74722 0 .41185-.34.74623-.761.74623l-1.629.00099c-1.352.00196-2.452 1.0816-2.452 2.40835v1.85922c0 .41185-.342.74722-.762.74722s-.761-.33537-.761-.74722v-1.85922c0-2.14948 1.783-3.89985 3.974-3.90181l1.629-.00098zm7.1729.00029h1.593c2.197 0 3.983 1.75136 3.983 3.90574v1.85627c0 .41185-.34.74722-.761.74722-.42 0-.761-.33537-.761-.74722v-1.85627c0-1.33068-1.104-2.41326-2.461-2.41326h-1.593c-.42 0-.761-.33341-.761-.74526 0-.41283.341-.74722.761-.74722zm-.8381 3.74237h-5.524c-1.264.01275-2.28 1.02571-2.269 2.26617v1.24537c.003.1451.122.2638.27.2687h9.52c.149-.004.268-.1226.273-.2687v-1.24537c.001-.59915-.235-1.17476-.661-1.60329-.423-.4246-1.004-.66288-1.609-.66288zm-13.0005 5.29854h20.477c.42 0 .761.3344.761.7473 0 .4118-.341.7452-.761.7452h-1.062v3.5596c0 2.1553-1.787 3.9067-3.983 3.9067h-1.593c-.421 0-.762-.3344-.762-.7472 0-.4119.341-.7463.762-.7463h1.593c1.357 0 2.461-1.0816 2.461-2.4132v-3.5596h-2.623v.9914c.01 1.2405-1.005 2.2544-2.27 2.2662h-5.524c-1.264-.0118-2.279-1.0257-2.269-2.2662v-.9914h-2.623v3.5635c0 1.3268 1.101 2.4064 2.454 2.4084l1.628.0009c.42 0 .761.3344.761.7463-.001.4128-.341.7472-.762.7472l-1.629-.001c-2.191-.0019-3.975-1.7523-3.975-3.9018v-3.5635h-1.061c-.42 0-.762-.3334-.762-.7452 0-.4129.342-.7473.762-.7473z" fill="#200e32" fill-rule="evenodd"/></svg>