<svg fill="none" height="24" viewBox="0 0 24 24" width="24" xmlns="http://www.w3.org/2000/svg"><path clip-rule="evenodd" d="m2 10.6699c0-4.78824 3.84034-8.6699 8.5776-8.6699 2.275 0 4.4567.91344 6.0653 2.53936 1.6087 1.62593 2.5124 3.83116 2.5124 6.13054 0 4.7883-3.8404 8.67-8.5777 8.67-4.73726 0-8.5776-3.8817-8.5776-8.67zm17.0134 6.9844 2.5546 2.0621h.0444c.5168.5224.5168 1.3694 0 1.8918-.5169.5224-1.3548.5224-1.8717 0l-2.12-2.4297c-.2004-.2019-.3131-.4761-.3131-.7621s.1127-.5602.3131-.7621c.3865-.3839 1.0061-.3839 1.3927 0z" fill="#200e32" fill-rule="evenodd"/></svg>