<svg viewBox="0 0 24 24" xmlns="http://www.w3.org/2000/svg"><path d="m0 0h24v24h-24z" fill="none"/><path d="m172.6861 191.34934-1.8587 1.01868a2.04864 2.04864 0 0 1 -3.01773-2.10788l.42672-2.59362a4.04634 4.04634 0 0 0 -1.11292-3.4963l-1.86665-1.89681a2.02974 2.02974 0 0 1 1.15872-3.4316l2.32027-.35147a4.1 4.1 0 0 0 3.095-2.29318l1.20167-2.53825a1.81714 1.81714 0 0 1 3.27783 0l1.20167 2.53825a4.1 4.1 0 0 0 3.095 2.29318l2.32028.35147a2.02973 2.02973 0 0 1 1.15871 3.4316l-1.86665 1.89681a4.04637 4.04637 0 0 0 -1.11292 3.4963l.42672 2.59362a2.04863 2.04863 0 0 1 -3.01772 2.10788l-1.85871-1.01868a4.13463 4.13463 0 0 0 -3.97059 0z" fill="#030835" transform="translate(-162.67141 -170.6266)"/></svg>