<svg height="2500" viewBox="0 0 141.732 141.732" width="2500" xmlns="http://www.w3.org/2000/svg"><path d="m62.935 89.571h-9.733l6.083-37.384h9.734zm-17.921-37.384-9.279 25.713-1.098-5.537.001.002-3.275-16.812s-.396-3.366-4.617-3.366h-15.34l-.18.633s4.691.976 10.181 4.273l8.456 32.479h10.141l15.485-37.385zm76.555 37.384h8.937l-7.792-37.385h-7.824c-3.613 0-4.493 2.786-4.493 2.786l-14.516 34.599h10.146l2.029-5.553h12.373zm-10.71-13.224 5.114-13.99 2.877 13.99zm-14.217-15.17 1.389-8.028s-4.286-1.63-8.754-1.63c-4.83 0-16.3 2.111-16.3 12.376 0 9.658 13.462 9.778 13.462 14.851s-12.075 4.164-16.06.965l-1.447 8.394s4.346 2.111 10.986 2.111c6.642 0 16.662-3.439 16.662-12.799 0-9.72-13.583-10.625-13.583-14.851.001-4.227 9.48-3.684 13.645-1.389z" fill="#2566af"/><path d="m34.638 72.364-3.275-16.812s-.396-3.366-4.617-3.366h-15.34l-.18.633s7.373 1.528 14.445 7.253c6.762 5.472 8.967 12.292 8.967 12.292z" fill="#e6a540"/><path d="m0 0h141.732v141.732h-141.732z" fill="none"/></svg>