<svg fill="none" height="24" viewBox="0 0 24 24" width="24" xmlns="http://www.w3.org/2000/svg"><path clip-rule="evenodd" d="m10.7044 3.51898c-.6704 0-1.24067.46582-1.40075 1.09367h5.38265c-.16-.62785-.7303-1.09367-1.4007-1.09367zm5.5027 1.09366h1.981c2.101 0 3.8119 1.73164 3.8119 3.85821 0 0-.06.90025-.08 2.15395-.002.0992-.0501.1964-.1291.2552-.4812.3554-.9215.6491-.9615.6693-1.6608 1.1139-3.5908 1.8977-5.6468 2.2876-.1341.0263-.2661-.0435-.3342-.163-.5763-.9985-1.6528-1.6486-2.8534-1.6486-1.1926 0-2.27914.643-2.87244 1.6425-.06903.1175-.1991.1853-.33216.16-2.03902-.3909-3.96899-1.1737-5.61981-2.2684l-.96048-.6683c-.08004-.0506-.13007-.1418-.13007-.243-.03001-.5165-.08004-2.17725-.08004-2.17725 0-2.12657 1.71086-3.85821 3.81191-3.85821h1.97098c.1901-1.46834 1.42071-2.61264 2.92151-2.61264h2.5812c1.5008 0 2.7314 1.1443 2.9215 2.61264zm5.4527 8.20256-.04.0203c-2.021 1.3569-4.4522 2.2582-7.0035 2.6329-.3602.0506-.7204-.1823-.8204-.5468-.2201-.8304-.9305-1.3773-1.7809-1.3773h-.01-.02c-.8504 0-1.5608.5469-1.7809 1.3773-.1.3645-.46023.5974-.82041.5468-2.55127-.3747-4.98249-1.276-7.0035-2.6329-.01-.0101-.11005-.0709-.19009-.0203-.09005.0507-.09005.1722-.09005.1722l.07004 5.1645c0 2.1266 1.70085 3.8481 3.8019 3.8481h12.04601c2.1011 0 3.8019-1.7215 3.8019-3.8481l.0801-5.1645s0-.1215-.0901-.1722c-.05-.0303-.11-.0202-.1501 0zm-8.9144 4.2431c0 .4253-.3302.7594-.7504.7594-.4102 0-.7504-.3341-.7504-.7594v-1.3064c0-.4152.3402-.7595.7504-.7595.4202 0 .7504.3443.7504.7595z" fill="#200e32" fill-rule="evenodd"/></svg>