<svg viewBox="0 0 24 24" xmlns="http://www.w3.org/2000/svg"><path d="m0 0h24v24h-24z" fill="#fff" opacity="0"/><path d="m191.08791 203.18681h-10a5.00185 5.00185 0 0 0 -5 5v10a5.00181 5.00181 0 0 0 5 5h10a5.00181 5.00181 0 0 0 5-5v-10a5.00185 5.00185 0 0 0 -5-5zm1.68793 6.87049a6.731 6.731 0 0 1 -3.87 3.81 5.65632 5.65632 0 0 1 -2.92.02 4.58882 4.58882 0 0 0 -2.21-.02 5.45771 5.45771 0 0 0 -3.04 3.11.748.748 0 0 1 -.68.42.79873.79873 0 0 1 -.33-.08.7482.7482 0 0 1 -.34-1c1.04-2.1 2.37-3.41 3.95-3.88a5.76922 5.76922 0 0 1 2.92-.02 4.352 4.352 0 0 0 2.21.02 5.40091 5.40091 0 0 0 2.97-3.04.74813.74813 0 0 1 1-.34.73971.73971 0 0 1 .34 1z" fill="#030835" transform="translate(-174.08791 -201.18681)"/></svg>