<svg fill="none" height="24" viewBox="0 0 24 24" width="24" xmlns="http://www.w3.org/2000/svg"><path clip-rule="evenodd" d="m16.9303 7c.0318-.07087.0467-.14811.0436-.22568h.0261c-.1118-2.66841-2.3151-4.77432-4.9951-4.77432-2.6799 0-4.88318 2.10591-4.99501 4.77432-.01319.07466-.01319.15103 0 .22568h-.07818c-1.28149 0-2.65137.84597-3.04907 3.1201l-.77774 6.1946c-.63632 4.5482 1.70572 5.6853 4.76363 5.6853h8.28997c3.049 0 5.3204-1.6465 4.7548-5.6853l-.7689-6.1946c-.4684-2.21046-1.7941-3.1201-3.0579-3.1201zm-1.4371 0c-.0278-.07206-.0426-.14847-.0435-.22568 0-1.9175-1.5598-3.47194-3.484-3.47194-1.9241 0-3.48386 1.55444-3.48386 3.47194.01318.07466.01318.15103 0 .22568zm-6.3962 5.1486c-.48811 0-.88379-.4073-.88379-.9097 0-.5023.39568-.9096.88379-.9096.4881 0 .88379.4073.88379.9096 0 .5024-.39569.9097-.88379.9097zm4.905-.9097c0 .5024.3957.9097.8838.9097s.8838-.4073.8838-.9097c0-.5023-.3957-.9096-.8838-.9096s-.8838.4073-.8838.9096z" fill="#200e32" fill-rule="evenodd"/></svg>