<svg fill="none" height="24" viewBox="0 0 24 24" width="24" xmlns="http://www.w3.org/2000/svg"><path clip-rule="evenodd" d="m15.8498 2.50071c.631 0 1.261.089 1.86.29 3.691 1.2 5.021 5.25 3.91 8.78999-.63 1.809-1.66 3.46-3.009 4.809-1.931 1.87-4.05 3.53-6.331 4.96l-.25.151-.26-.161c-2.289-1.42-4.42-3.08-6.369-4.96-1.34-1.349-2.371-2.99-3.011-4.799-1.13-3.53999.2-7.58999 3.931-8.81099.29-.1.589-.17.889-.209h.12c.281-.041.56-.06.84-.06h.11c.63.019 1.24.129 1.831.33h.059c.04.019.07.04.09.059.221.071.43.151.63.261l.38.17c.0918.04897.1949.1238.284.18847.0564.04097.1072.07787.146.10153.0163.00963.0329.01931.0496.02907.0858.05005.1751.10219.2504.15993 1.111-.849 2.46-1.309 3.85-1.299zm2.66 7.2c.41-.011.76-.34.79-.761v-.119c.03-1.401-.819-2.67-2.11-3.16-.41-.141-.86.08-1.01.5-.14.42.08.88.5 1.029.641.24 1.07.871 1.07 1.57v.031c-.019.229.05.45.19.62s.35.269.57.29z" fill="#200e32" fill-rule="evenodd"/></svg>