<svg fill="none" height="24" viewBox="0 0 24 24" width="24" xmlns="http://www.w3.org/2000/svg"><path clip-rule="evenodd" d="m17.5227 7.39601v1.53334c1.7224.53761 2.9773 2.09675 2.9773 3.95905v4.9369c0 2.3055-1.9114 4.1747-4.2678 4.1747h-8.4634c-2.35744 0-4.2688-1.8692-4.2688-4.1747v-4.9369c0-1.8623 1.25595-3.42144 2.97729-3.95905v-1.53334c.01016-2.98122 2.47938-5.39601 5.50751-5.39601 3.0687 0 5.5379 2.41479 5.5379 5.39601zm-5.5176-3.65697c2.0627 0 3.7394 1.63967 3.7394 3.65697v1.31769h-7.48897v-1.33757c.01016-2.00735 1.68679-3.63709 3.74957-3.63709zm.884 12.71586c0 .487-.3963.8745-.8942.8745-.4877 0-.884-.3875-.884-.8745v-2.2061c0-.477.3963-.8645.884-.8645.4979 0 .8942.3875.8942.8645z" fill="#200e32" fill-rule="evenodd"/></svg>