<svg fill="none" height="24" viewBox="0 0 24 24" width="24" xmlns="http://www.w3.org/2000/svg"><path clip-rule="evenodd" d="m9.89535 11.23c-.4375 0-.78343.34-.78343.77 0 .42.34593.77.78343.77h6.10465v4.78c0 2.45-2.0247 4.45-4.5276 4.45h-4.95496c-2.49273 0-4.51744-1.99-4.51744-4.44v-11.11c0-2.46 2.03488-4.45 4.52762-4.45h4.96508c2.4826 0 4.5073 1.99 4.5073 4.44v4.79zm9.73485-2.6898 2.92 2.91c.15.15.23.34.23.55 0 .2-.08.4-.23.54l-2.92 2.91c-.15.15-.35.23-.54.23-.2 0-.4-.08-.55-.23-.3-.3-.3-.79 0-1.09l1.6-1.59h-4.14v-1.54h4.14l-1.6-1.59c-.3-.3-.3-.79 0-1.09.3-.31.79-.31 1.09-.01z" fill="#200e32" fill-rule="evenodd"/></svg>