<svg fill="none" height="24" viewBox="0 0 24 24" width="24" xmlns="http://www.w3.org/2000/svg"><path clip-rule="evenodd" d="m18.7071 8.79633c0 1.25597.3319 1.99617 1.0624 2.84927.5536.6285.7305 1.4352.7305 2.3104 0 .8742-.2872 1.7041-.8627 2.3779-.7533.8078-1.8158 1.3234-2.9001 1.4131-1.5713.1339-3.1435.2467-4.7367.2467-1.5942 0-3.16545-.0674-4.73675-.2467-1.08529-.0897-2.14773-.6053-2.90008-1.4131-.57545-.6738-.86367-1.5037-.86367-2.3779 0-.8752.1779-1.6819.73049-2.3104.75335-.8531 1.06343-1.5933 1.06343-2.84927v-.42603c0-1.68196.41941-2.78178 1.28308-3.85844 1.28406-1.57016 3.34235-2.51186 5.3788-2.51186h.0894c2.0802 0 4.205.98702 5.4673 2.62466.8189 1.0545 1.1946 2.10799 1.1946 3.74564zm-9.63343 11.26447c0-.5035.46215-.7342.88951-.8329.49992-.1057 3.54612-.1057 4.04602 0 .4274.0987.8895.3294.8895.8329-.0249.4794-.3061.9045-.6947 1.1744-.5039.3928-1.0952.6415-1.7134.7312-.3419.0443-.6778.0453-1.0078 0-.6192-.0897-1.2105-.3384-1.71342-.7322-.3896-.2689-.67086-.694-.69571-1.1734z" fill="#200e32" fill-rule="evenodd"/></svg>