<svg fill="none" height="24" viewBox="0 0 24 24" width="24" xmlns="http://www.w3.org/2000/svg"><path clip-rule="evenodd" d="m8.09756 12c0 2.1333 1.74634 3.8691 3.90244 3.8691 2.1463 0 3.8927-1.7358 3.8927-3.8691 0-2.14303-1.7464-3.87879-3.8927-3.87879-2.1561 0-3.90244 1.73576-3.90244 3.87879zm9.63904-5.95394c1.7073 1.31879 3.161 3.24849 4.2049 5.66304.078.1842.078.3976 0 .5721-2.0878 4.8291-5.8049 7.7188-9.9415 7.7188h-.0098c-4.12679 0-7.84386-2.8897-9.93166-7.7188-.07805-.1745-.07805-.3879 0-.5721 2.0878-4.8291 5.80487-7.7091 9.93166-7.7091h.0098c2.0683 0 4.0293.71758 5.7366 2.04606zm-5.7354 8.36634c1.3366 0 2.4292-1.086 2.4292-2.4145 0-1.3382-1.0926-2.42428-2.4292-2.42428-.1171 0-.2342.0097-.3415.0291-.039 1.06668-.9171 1.91998-1.99999 1.91998h-.04878c-.02927.1552-.04878.3103-.04878.4752 0 1.3285 1.09265 2.4145 2.43905 2.4145z" fill="#200e32" fill-rule="evenodd"/></svg>